<svg xmlns="http://www.w3.org/2000/svg" viewBox="0 0 64 64" role="img" aria-label="Elowen">
    <rect class="bg" x="5" y="5" width="54" height="54" rx="15" />
    <path class="mark" d="M19 17h24a3 3 0 0 1 0 6H25v7h15a3 3 0 0 1 0 6H25v7h18a3 3 0 0 1 0 6H19V17Z" />
    <path class="accent" d="M45.8 14.8c5.9.9 9.4 4.7 9.4 10.4-5.7.6-10.1-2.8-11.1-8.6-.2-1.1.6-2 1.7-1.8Z" />
    <path class="vein" d="M46.6 16.7 53 23.1" />
    <style>
        .bg {
            fill: #eef7d8;
            stroke: #26351f;
            stroke-width: 4;
        }

        .mark {
            fill: #17210f;
        }

        .accent {
            fill: #b7db7d;
            stroke: #26351f;
            stroke-width: 2;
            stroke-linejoin: round;
        }

        .vein {
            fill: none;
            stroke: #26351f;
            stroke-width: 2;
            stroke-linecap: round;
        }

        @media (prefers-color-scheme: dark) {
            .bg {
                fill: #11180f;
                stroke: #b7db7d;
            }

            .mark {
                fill: #eef7d8;
            }

            .accent {
                fill: #b7db7d;
                stroke: #eef7d8;
            }

            .vein {
                stroke: #17210f;
            }
        }
    </style>
</svg>
